<?xml version="1.0" encoding="UTF-8"?>
<svg id="Capa_1" data-name="Capa 1" xmlns="http://www.w3.org/2000/svg" viewBox="0 0 98.25 98.25">
  <defs>
    <style>
      .cls-1 {
        stroke: #afafaf;
        stroke-miterlimit: 10;
      }

      .cls-1, .cls-2 {
        fill: #afafaf;
      }
    </style>
  </defs>
  <path class="cls-1" d="M17.79,4.56c1.7,.41,3.33,.95,4.78,1.97,3.21,2.25,4.99,5.29,5.32,9.23,.19,2.25,.59,4.48,.85,6.73,.06,.54,.29,.7,.78,.66,.23-.02,.46,0,.7,0,19.78,0,39.56,0,59.34,0,2.16,0,3.59,1,4.01,2.85,.12,.55,.17,1.17,.06,1.72-2.06,10.34-4.14,20.67-6.24,31-.88,4.32-5.14,8.26-9.59,8.85-1.03,.14-2.07,.14-3.11,.14-12.47,0-24.94-.02-37.41,.02-5.08,.02-10.84-4.42-11.5-10.68-.78-7.37-1.9-14.71-2.87-22.07-.84-6.38-1.67-12.75-2.51-19.13-.05-.37-.1-.75-.17-1.12-.33-1.77-1.29-2.66-3.09-2.7-2.61-.05-5.22-.1-7.83,0-2.3,.08-3.94-.7-4.74-2.94v-1.57c.48-1.49,1.47-2.48,2.96-2.96h10.27Zm12.04,26.02c.19,1.51,.37,2.92,.55,4.32,.96,7.3,1.95,14.59,2.89,21.89,.33,2.55,1.3,3.47,3.85,3.47,13.08,0,26.16,0,39.24,0,2.36,0,3.29-.78,3.75-3.11,1.55-7.72,3.1-15.45,4.65-23.17,.22-1.12,.42-2.24,.64-3.41H29.83Z"/>
  <path class="cls-2" d="M23.15,82.57c-.01-5.66,5.46-11.16,11.1-11.16,5.63,0,11.15,5.49,11.17,11.12,.02,5.62-5.5,11.15-11.13,11.16-5.65,0-11.13-5.46-11.15-11.12Zm11.14-3.72c-1.46,0-2.82,.26-3.42,1.83-.47,1.23-.51,2.54,.03,3.74,.27,.6,.86,1.21,1.46,1.49,1.25,.57,2.61,.51,3.89,0,.41-.16,.84-.48,1.07-.84,.94-1.49,.93-3.1,.23-4.66-.61-1.36-1.92-1.54-3.25-1.55Z"/>
  <path class="cls-2" d="M67.71,82.55c0-5.66,5.48-11.14,11.13-11.14,5.63,0,11.15,5.52,11.15,11.14,0,5.63-5.52,11.14-11.16,11.14-5.65,0-11.12-5.49-11.12-11.14Zm11.09,3.7c2.59,.01,3.75-1.12,3.75-3.68,0-2.55-1.11-3.69-3.63-3.71-2.6-.02-3.78,1.1-3.8,3.64-.03,2.56,1.13,3.74,3.69,3.75Z"/>
</svg>