<?xml version="1.0" encoding="UTF-8"?>
<svg id="Capa_1" data-name="Capa 1" xmlns="http://www.w3.org/2000/svg" viewBox="0 0 100 100">
  <defs>
    <style>
      .cls-1 {
        fill: #afafaf;
      }
    </style>
  </defs>
  <path class="cls-1" d="M64.54,29.36c.01-.36,.19-.8,.41-1.03,1.59-1.64,3.19-3.27,4.8-4.9,1.52-1.55,3.04-3.09,4.56-4.65,.3-.31,.46-.34,.96-.17,3.3,1.12,6.4,.48,8.96-1.85,2.44-2.22,3.35-5.13,2.63-8.42-.51-2.35-2.01-4.42-4.13-5.67-2.09-1.24-4.57-1.56-6.81-.9-2.51,.74-4.5,2.38-5.62,4.61-1.08,2.16-1.21,4.62-.35,6.95,.16,.44,.12,.62-.22,.96-1.5,1.5-2.98,3.01-4.47,4.52-1.9,1.93-3.81,3.86-5.73,5.78-1.07,1.07-1.54,2.23-1.47,3.65,.05,.99,.04,1.99,.03,3.04,0,.26,0,.53,0,.8l-.89-.45c-1.21-.61-2.37-1.19-3.55-1.75-.34-.16-.43-.3-.42-.72,.02-3.19,.04-6.6,0-9.98,0-.53,.11-.7,.62-.94,2.32-1.07,4.04-3.13,4.72-5.67,.68-2.55,.23-5.21-1.25-7.3-2.15-3.04-6.04-4.51-9.45-3.56-3.87,1.07-6.37,4.12-6.69,8.16-.27,3.48,1.86,6.96,5.19,8.46,.39,.18,.45,.32,.44,.77l-.02,1.91c-.03,2.25-.06,4.58,.05,6.87,.07,1.51-.33,2.17-1.59,2.61-.92,.33-1.77,.78-2.67,1.26-.21,.11-.42,.22-.63,.33,0-.27,0-.53,0-.79-.01-1.02-.02-1.98,.03-2.94,.08-1.48-.41-2.69-1.54-3.82-1.97-1.95-3.91-3.92-5.85-5.9-1.42-1.45-2.85-2.89-4.28-4.33-.35-.35-.39-.53-.22-.95,.53-1.3,.68-2.72,.45-4.36-.5-3.56-3.4-6.66-6.9-7.36-3.64-.73-7.47,.88-9.31,3.91-2.02,3.32-1.81,7.33,.54,10.22,2.53,3.12,6.3,4.17,10.07,2.8,.34-.12,.46-.09,.71,.17,1.35,1.38,2.71,2.76,4.06,4.14,1.81,1.84,3.63,3.68,5.43,5.54,.19,.2,.35,.57,.35,.87,.02,.81,.02,1.61,.02,2.42,0,.92,0,1.84,.03,2.76,.02,.68-.14,.97-.76,1.27-2.39,1.17-4.78,2.37-7.16,3.56-2.24,1.12-4.47,2.24-6.72,3.34-1.6,.78-2.34,1.98-2.34,3.78,.03,12.22,.03,23.4,0,34.16,0,1.89,.74,3.1,2.43,3.92,3.77,1.84,7.58,3.76,11.27,5.61l3.02,1.52c3.14,1.57,6.27,3.15,9.41,4.73l4.42,2.22,1.79,.04,.45-.24c.25-.14,.51-.27,.77-.4l6.28-3.14c6.87-3.44,13.74-6.88,20.62-10.29,1.75-.86,2.52-2.11,2.52-4.05-.04-11.29-.04-22.69,0-33.88,0-1.97-.76-3.23-2.49-4.07-2.58-1.26-5.15-2.54-7.72-3.83-2.05-1.03-4.1-2.06-6.16-3.07-.49-.24-.62-.45-.6-.99,.02-.85,.02-1.7,.02-2.56,0-.9,0-1.81,.02-2.71Zm-11.34,33.19c0-.54,.12-.75,.61-.99,5.31-2.63,10.61-5.28,15.91-7.94l4.94-2.47c.11-.05,.22-.1,.33-.16,0,.08,0,.16,0,.23v9.59c0,5.96,0,11.93,0,17.89,0,.45-.04,.59-.37,.75-5.54,2.75-11.07,5.51-16.6,8.28l-4.76,2.38s-.05,.02-.07,.03v-8.31c0-6.43,0-12.86-.02-19.29Zm11.31-20.03l6.51,3.25-6.78,3.4c-4.55,2.28-9.09,4.55-13.65,6.8-.3,.15-.79,.18-1.01,.07-5.9-2.91-11.78-5.86-17.67-8.8l-2.94-1.47,6.51-3.26v.11c0,.51,0,.99,0,1.47,.02,2.05,1.35,3.48,3.22,3.48h.02c1.87,0,3.19-1.45,3.2-3.5,0-.53,0-1.06,0-1.59,0-.91,0-1.82,.02-2.73,0-.22,.15-.5,.22-.55,1.23-.66,2.49-1.28,3.78-1.92l.81-.4s0,.1,0,.15v2.81c0,1.42,0,2.83,0,4.25,.01,2.06,1.34,3.49,3.22,3.49,1.88,0,3.21-1.44,3.22-3.49,0-1.78,0-3.57,0-5.4v-1.8s.65,.32,.65,.32c1.42,.7,2.78,1.38,4.08,2.06,.04,.05,.1,.27,.11,.49,.02,.85,.01,1.7,.01,2.56,0,.59,0,1.18,0,1.77,.02,2.05,1.34,3.5,3.21,3.5h.02c1.87,0,3.19-1.43,3.22-3.48,0-.46,0-.93,0-1.44v-.14Zm-12.8-30.55c-.46,.47-1.06,.72-1.69,.73h-.02c-1.3,0-2.41-1.09-2.42-2.4-.01-1.31,1.09-2.42,2.4-2.44h.02c.63,0,1.22,.25,1.68,.7,.46,.46,.72,1.06,.73,1.7,0,.64-.24,1.24-.7,1.71ZM24.98,57.03v-5.93s0-.07,0-.11c.07,.03,.14,.06,.2,.1l5.07,2.53c5.34,2.67,10.68,5.34,16.03,8,.4,.2,.5,.3,.5,.68-.02,7.17-.02,14.34-.02,21.51v6.32c-.09-.04-.18-.08-.27-.12l-5.97-2.98c-5.02-2.51-10.03-5.01-15.05-7.51-.42-.21-.52-.36-.52-.76,.02-7.25,.02-14.49,.02-21.74ZM78.25,12.7c-1.29,.04-2.43-1.08-2.44-2.4-.01-1.31,1.09-2.43,2.4-2.44h.02c.63,0,1.23,.25,1.68,.7,.46,.46,.72,1.06,.73,1.7,.01,1.31-1.09,2.43-2.39,2.44Zm-58.91-2.45c.01-.64,.27-1.24,.74-1.69,.46-.45,1.05-.69,1.67-.69h.04c.64,.01,1.24,.27,1.69,.74s.7,1.08,.69,1.71c-.02,1.31-1.14,2.35-2.45,2.38-1.31-.02-2.4-1.15-2.38-2.45Z"/>
</svg>