<svg xmlns="http://www.w3.org/2000/svg" viewBox="0 0 40 40"><defs><style>.cls-1{isolation:isolate;}.cls-2{mix-blend-mode:multiply;}.cls-3{fill:#ededed;}.cls-4{fill:#444;}</style></defs><g class="cls-1"><g id="Capa_2" data-name="Capa 2"><g id="Capa_1-2" data-name="Capa 1"><g class="cls-2"><rect class="cls-3" width="40" height="40" rx="10"/><path class="cls-4" d="M24.92,15.37H17.81a22,22,0,0,0-2.76-6l-.17-.27H3.82l.9,1.39A19.14,19.14,0,0,1,8,20.3a5.66,5.66,0,0,1,0,.58c0,.16,0,.33,0,.5s0,.4,0,.6a23.44,23.44,0,0,1-1,5.18L5.83,30.9H16.69v0h.22c4.38,0,3.79-2.79,5.18-7ZM16.46,27.29l-.59,1.95H7.64l.4-1.3A21.47,21.47,0,0,0,6.4,10.74h8a20.93,20.93,0,0,1,2.19,4.63A19.58,19.58,0,0,1,16.46,27.29Z"/><path class="cls-4" d="M23,24.69c-1.1,3-.35,5.14-2.62,6.22h4.85a5.3,5.3,0,0,0,5-3.47l6-16.34H28Z"/></g></g></g></g></svg>