<?xml version="1.0" encoding="UTF-8"?>
<svg id="Capa_1" data-name="Capa 1" xmlns="http://www.w3.org/2000/svg" viewBox="0 0 100 100">
  <defs>
    <style>
      .cls-1 {
        stroke: #afafaf;
        stroke-miterlimit: 10;
      }

      .cls-1, .cls-2 {
        fill: #afafaf;
      }
    </style>
  </defs>
  <path class="cls-1" d="M26.35,89.37c-.68,0-1.37-.06-2.08-.17l-1.14-.18c-2.94-.47-5.98-.95-8.97-1.63-5.31-1.2-9.39-6.18-9.5-11.58-.13-6.77-.13-13.56,0-20.16,.08-3.74,1.85-7,4.99-9.18,5.86-4.07,12.07-8.29,18.46-12.55,2.06-1.38,4.58-1.53,6.73-.41,2.2,1.14,3.61,3.44,3.67,6.01,.04,1.71,.03,3.41,.02,5.12v11.96c2.17-.8,4.3-1.59,6.44-2.35,.63-.23,1.26-.46,1.88-.7,1.85-.69,3.75-1.41,5.77-1.89,5.91-1.39,11.45,2.03,12.87,7.95,1.1,4.59-1.09,10.49-6.67,12.42-5.39,1.86-10.83,3.91-16.1,5.9l-3.92,1.48c-.66,1.83-1.46,3.84-3.04,5.53-2.77,2.96-5.94,4.45-9.44,4.45Zm5.49-51.45c-.25,0-.55,.07-.87,.28-6.36,4.24-12.54,8.44-18.38,12.49-1.78,1.23-2.74,2.98-2.78,5.05-.13,6.54-.13,13.25,0,19.96,.06,3.05,2.46,5.97,5.48,6.65,2.83,.64,5.79,1.11,8.65,1.57l1.14,.18c2.61,.42,4.81-.44,6.94-2.71,.99-1.05,1.51-2.51,2.11-4.19,.39-1.1,1.32-2.06,2.37-2.45l4.43-1.67c5.3-2,10.77-4.06,16.23-5.95,2.78-.96,3.9-4.04,3.34-6.34-.75-3.13-3.56-4.87-6.68-4.14-1.69,.4-3.36,1.03-5.13,1.69-.65,.25-1.31,.49-1.96,.73-2.31,.83-4.61,1.67-6.96,2.54l-6.38,2.34v-19.37c.02-1.65,.03-3.31-.01-4.96-.02-.7-.35-1.28-.89-1.56-.14-.08-.36-.16-.64-.16Zm6.48,41.66h-.01s0,0,.01,0Zm.67-.64s0,.02,0,.02c0,0,0-.02,0-.02Z"/>
  <path class="cls-2" d="M41.53,52.25c0-.44,0-.7,0-.95,0-11.54,0-23.08,0-34.62,0-3.94,1.64-7.01,5.26-8.7,1.32-.62,2.9-.94,4.36-.95,11.48-.08,22.96-.06,34.44-.03,5.73,.01,9.83,4.15,9.83,9.88,0,22.12,0,44.24,0,66.36,0,3.99-1.6,7.08-5.26,8.79-1.32,.62-2.9,.94-4.36,.95-11.48,.08-22.96,.06-34.44,.03-5.69-.01-9.61-3.98-9.64-9.67,0-.45,0-.9,0-1.44,1.89-.68,3.78-1.35,5.77-2.06,0,1.32-.01,2.5,0,3.69,.03,2.2,1.5,3.71,3.69,3.71,11.61,.01,23.22,.01,34.82,0,2.05,0,3.51-1.43,3.64-3.47,.02-.29,.01-.58,.01-.87,0-21.93,0-43.85-.03-65.78,0-.95-.25-1.99-.69-2.82-.54-1.05-1.62-1.53-2.83-1.53-11.77,0-23.54-.01-35.31,0-2.11,0-3.52,1.59-3.52,3.87-.01,6.75,0,13.5,0,20.25,0,4.15-.02,8.29,.02,12.44,0,.67-.2,.96-.82,1.16-1.61,.52-3.2,1.12-4.96,1.74Z"/>
  <path class="cls-2" d="M53.88,29.4c0-2.57,0-5.14,0-7.72,0-1.68,1-2.73,2.68-2.74,3.96-.03,7.91-.02,11.87,0,1.7,0,2.71,1.01,2.71,2.71,.02,5.24,.02,10.48,0,15.72,0,1.69-.99,2.73-2.68,2.75-4.02,.04-8.04,.04-12.06,0-1.53-.02-2.5-1.11-2.52-2.72-.02-2.67,0-5.34,0-8.01Z"/>
  <path class="cls-2" d="M53.36,77.4c1.86-.66,3.72-1.33,5.59-1.96,2.03-.69,3.91-1.61,5.5-3.08,.23-.21,.62-.33,.94-.33,6.07-.02,12.15-.03,18.22,0,1.86,0,2.97,1.07,2.96,2.7,0,1.67-1.19,2.85-2.97,2.86-9.96,.01-19.92,0-29.88,0-.11,0-.22-.02-.33-.03,0-.05-.02-.1-.03-.16Z"/>
  <path class="cls-2" d="M59.95,49.05c.54-.03,.81-.06,1.09-.06,7.42,0,14.84,0,22.26,0,2.22,0,3.44,1.24,3.25,3.22-.13,1.29-1.03,2.26-2.33,2.45-.38,.06-.77,.07-1.15,.07-5.11,0-10.22,0-15.32,.02-.64,0-1.04-.18-1.42-.73-1.37-2-2.59-2.93-6.38-4.98Z"/>
  <path class="cls-2" d="M68.49,66.24c.21-1.97,.4-3.81,.61-5.71,.18-.01,.43-.05,.67-.05,4.5,0,8.99-.01,13.49,0,2.02,0,3.34,1.2,3.32,2.95-.02,1.63-1.17,2.78-2.92,2.79-3.11,.03-6.23,.01-9.34,.01-1.95,0-3.91,0-5.83,0Z"/>
</svg>