<?xml version="1.0" encoding="UTF-8"?>
<svg id="Capa_1" data-name="Capa 1" xmlns="http://www.w3.org/2000/svg" viewBox="0 0 98.25 98.25">
  <defs>
    <style>
      .cls-1 {
        fill: #afafaf;
      }
    </style>
  </defs>
  <path class="cls-1" d="M12.83,20.45c3.11,1.52,5.38,1.34,7.22-.58,1.81-1.88,1.95-4.15,.43-7.06,15.85-13.11,40.7-13.65,57.36,.02-.9,1.26-1.6,2.67-1.18,4.22,.31,1.13,.86,2.33,1.65,3.17,1.8,1.92,4.36,1.94,7.01,.31,11.93,13.6,14.9,38.95,.1,57.32-1.3-.81-2.73-1.46-4.27-.98-1.06,.33-2.16,.87-2.95,1.62-1.87,1.78-1.92,4.11-.41,6.94-15,12.51-39.56,14.19-57.32,.05,.97-1.47,1.7-3.09,1.04-4.86-.37-1.01-.95-2.04-1.72-2.77-1.85-1.76-4.15-1.71-6.94-.07C-.22,62.02-.82,37.16,12.83,20.45Zm-1.12,28.55c-.02,20.68,16.67,37.5,37.26,37.54,20.76,.04,37.55-16.68,37.58-37.44,.03-20.55-16.75-37.41-37.26-37.43-20.74-.02-37.56,16.68-37.58,37.33Z"/>
  <path class="cls-1" d="M71.72,23.94c-1.34,1.29-2.59,2.49-3.88,3.73-4.78-4.15-10.44-6.5-16.88-7.01v-5.32c7.9,.47,14.74,3.34,20.76,8.6Z"/>
  <path class="cls-1" d="M77.65,50.93h5.33c-.54,7.92-3.4,14.79-8.63,20.71-1.24-1.31-2.43-2.56-3.67-3.87,4.08-4.71,6.44-10.35,6.97-16.85Z"/>
  <path class="cls-1" d="M74.4,26.65c5.17,5.82,8.03,12.69,8.59,20.63h-5.33c-.53-6.44-2.86-12.09-7.06-16.92,1.26-1.23,2.49-2.44,3.8-3.71Z"/>
  <path class="cls-1" d="M67.93,70.55c1.22,1.25,2.4,2.47,3.6,3.71-2.72,3.94-13.74,8.65-20.53,8.68v-5.28c6.38-.52,12.07-2.86,16.93-7.11Z"/>
  <path class="cls-1" d="M30.45,70.67c6.1,4.66,8.85,5.81,16.84,7.02v5.29c-7.9-.55-14.75-3.41-20.58-8.56,1.25-1.26,2.47-2.48,3.74-3.75Z"/>
  <path class="cls-1" d="M23.96,26.66c1.27,1.23,2.5,2.41,3.48,3.36-1.58,2.79-3.37,5.37-4.54,8.21-1.17,2.84-1.72,5.93-2.58,9.04-1.39,0-3.08,0-4.77,0-.87-4.88,3.77-16.26,8.41-20.61Z"/>
  <path class="cls-1" d="M15.37,50.94h5.32c.5,6.39,2.79,12.06,6.98,16.92-1.28,1.21-2.53,2.39-3.85,3.65-5.07-5.74-7.92-12.59-8.45-20.57Z"/>
  <path class="cls-1" d="M47.31,15.33v5.33c-6.41,.49-12.07,2.8-16.93,6.98-1.22-1.27-2.41-2.52-3.67-3.83,5.78-5.1,12.63-7.95,20.6-8.48Z"/>
  <path class="cls-1" d="M61.68,41.64h-9.06v24.58h-7.28v-24.58h-8.9v-5.62h25.24v5.62Z"/>
</svg>