<?xml version="1.0" encoding="UTF-8"?>
<svg id="Capa_1" data-name="Capa 1" xmlns="http://www.w3.org/2000/svg" viewBox="0 0 100 100">
  <defs>
    <style>
      .cls-1 {
        fill: #afafaf;
      }
    </style>
  </defs>
  <path class="cls-1" d="M72.52,95c-3.8,0-7.61,.06-11.41-.01-4.81-.09-8.47-3.55-8.68-8.33-.15-3.48-.17-6.97,.02-10.45,.21-3.78,2.33-6.32,5.86-7.62,.65-.24,.72-.59,.76-1.15,.49-6.49,4.64-11.34,10.81-12.66,8-1.71,15.82,4.33,16.16,12.51,.03,.71,.2,1.07,.94,1.35,3.09,1.18,5.32,3.37,5.57,6.69,.31,4.12,.38,8.31,0,12.42-.39,4.21-4.06,7.09-8.31,7.26-.42,.02-.84,.03-1.27,.04-3.49,0-6.97,0-10.46,0,0-.01,0-.02,0-.03Zm-11.11-17.91v8.84c.25,.04,.42,.09,.59,.09,7,0,14,0,20.99,.03,.75,0,.87-.39,.86-.98,0-2.18,.01-4.36,0-6.54,0-.47-.08-.95-.12-1.44h-22.33Zm15.65-9.15c-.24-2.79-2.25-4.59-4.79-4.42-2.32,.15-4.17,2.13-4.1,4.42h8.88Z"/>
  <path class="cls-1" d="M43.25,4.94c12.45-.03,22.49,9.96,22.55,22.43,.06,12.47-10.01,22.61-22.47,22.63-12.45,.02-22.57-10.09-22.57-22.55,0-12.42,10.05-22.48,22.49-22.5Zm-13.46,22.56c.02,7.48,6.03,13.47,13.52,13.46,7.45,0,13.51-6.06,13.51-13.5,0-7.45-6.17-13.6-13.6-13.54-7.46,.06-13.45,6.12-13.43,13.58Z"/>
  <path class="cls-1" d="M16.29,86.07c.82,0,1.49,0,2.15,0,6.72,0,13.44-.02,20.16,0,3.15,.01,5.24,2.59,4.55,5.55-.46,2-2.2,3.39-4.39,3.41-3.41,.03-6.83,.02-10.24,0-4.08,0-8.17,.02-12.25-.05-5.02-.09-8.67-3.28-8.9-8.31-.25-5.58-.32-11.21,.14-16.77,.65-7.92,7.87-14.65,15.79-15.29,1.68-.14,3.38-.19,5.06-.09,.87,.05,1.83,.34,2.56,.8,3.79,2.39,7.91,3.58,12.37,3.69,2.64,.07,4.55,2.06,4.5,4.59-.06,2.51-2.06,4.38-4.72,4.37-5.09,0-9.93-1.14-14.37-3.61-1.9-1.06-3.75-1.04-5.68-.58-3.86,.93-6.65,4.35-6.72,8.33-.08,4.57-.02,9.14-.02,13.93Z"/>
</svg>