<?xml version="1.0" encoding="UTF-8"?>
<svg id="Capa_1" data-name="Capa 1" xmlns="http://www.w3.org/2000/svg" viewBox="0 0 98.25 98.25">
  <defs>
    <style>
      .cls-1 {
        fill: #afafaf;
      }
    </style>
  </defs>
  <rect class="cls-1" x="4.73" y="84.39" width="89.15" height="7.92"/>
  <path class="cls-1" d="M24.14,74.37H11.37c-3.87,0-7.02-3.15-7.02-7.02V30.51c0-3.87,3.15-7.02,7.02-7.02h12.76c3.87,0,7.02,3.15,7.02,7.02v36.84c0,3.87-3.15,7.02-7.02,7.02Zm-11.87-7.92h10.97V31.4H12.27v35.05ZM24.14,31.4h0Z"/>
  <path class="cls-1" d="M56.15,74.37h-12.76c-3.87,0-7.02-3.15-7.02-7.02V19.41c0-3.87,3.15-7.02,7.02-7.02h12.76c3.87,0,7.02,3.15,7.02,7.02v47.94c0,3.87-3.15,7.02-7.02,7.02Zm-11.87-7.92h10.97V20.31h-10.97v46.15Zm11.87-46.15h0Z"/>
  <path class="cls-1" d="M86.88,74.37h-12.76c-3.87,0-7.02-3.15-7.02-7.02V12.96c0-3.87,3.15-7.02,7.02-7.02h12.76c3.87,0,7.02,3.15,7.02,7.02v54.38c0,3.87-3.15,7.02-7.02,7.02Zm-11.87-7.92h10.97V13.86h-10.97v52.59Zm11.87-52.59h0Z"/>
</svg>