<?xml version="1.0" encoding="UTF-8"?>
<svg id="Capa_1" data-name="Capa 1" xmlns="http://www.w3.org/2000/svg" viewBox="0 0 100 100">
  <defs>
    <style>
      .cls-1 {
        stroke: #afafaf;
        stroke-miterlimit: 10;
      }

      .cls-1, .cls-2 {
        fill: #afafaf;
      }
    </style>
  </defs>
  <path class="cls-1" d="M69.22,74.51c-.29,.34-.57,.69-.85,1.04-1.22,1.53-2.69,2.77-4.36,3.77-3.35,2-7.02,2.81-10.87,2.82-8.48,.02-16.97,0-25.45,0-2.22,0-4.4-.25-6.53-.89-3.84-1.15-7.01-3.27-9.21-6.64-3.56-5.45-4.25-11.44-2.99-17.7,1.01-4.98,3.67-9.11,7.1-12.77,5.26-5.6,11.61-9.63,18.56-12.78,.24-.11,.52-.15,.79-.15,2.88-.01,5.75-.02,8.63,0,.29,0,.64,.12,.86,.31,3.41,2.98,6.56,6.2,9.22,9.87,3.06,4.23,5.36,8.8,6.13,14.02,.2,1.34,.18,2.72,.37,4.07,.22,1.55,1.56,2.52,3.15,2.41,1.48-.1,2.71-1.34,2.67-2.86-.04-1.66-.13-3.33-.39-4.96-.74-4.69-2.52-8.99-5-13.03-.19-.3-.37-.61-.56-.92,.21,.01,.33,.09,.43,.19,1.99,2,4.1,3.9,5.93,6.04,2.35,2.73,4.01,5.88,5,9.37,.56,1.99,.82,4.02,.87,6.09,.04,1.49,1.08,2.66,2.44,2.88,1.44,.23,2.7-.48,3.29-1.85,.06-.13,.13-.25,.2-.37v-2.68c-.17-1.1-.31-2.2-.52-3.28-1.16-6.06-4.11-11.2-8.18-15.75-5.1-5.69-11.31-9.9-18.05-13.37-.48-.25-.97-.49-1.46-.73-.04-.02-.08-.06-.18-.15,.5-1.3,1.01-2.63,1.52-3.96,.79-2.05,1.6-4.1,2.38-6.16,.44-1.18,.47-2.38-.4-3.36-.45-.51-1.16-.78-1.75-1.16h-1.19c-3.76,1.51-7.66,2.25-11.72,2.03-3.1-.17-6.09-.86-8.97-2.03h-1.19c-.9,.33-1.71,.77-2.12,1.71-.42,.96-.37,1.92,0,2.89,1.19,3.07,2.37,6.14,3.56,9.22,.11,.29,.21,.59,.26,.76-2.88,1.68-5.74,3.22-8.46,4.97-5.7,3.67-10.72,8.1-14.51,13.79-2.52,3.78-4.25,7.89-4.9,12.41-.71,4.96-.27,9.85,1.35,14.6,1.45,4.24,3.87,7.85,7.41,10.65,4.54,3.59,9.8,5.13,15.5,5.18,8.83,.08,17.66,.07,26.49,0,5.56-.04,10.72-1.48,15.29-4.78,1.99-1.44,3.69-3.16,5.09-5.17,.98-1.39,.73-3.12-.55-4.12-1.29-1-3-.8-4.12,.5ZM46.69,19.26c-.77,1.99-1.48,3.85-2.22,5.7-.06,.14-.33,.29-.5,.29-2.33,.02-4.66,.02-6.99,0-.19,0-.49-.23-.56-.42-.72-1.79-1.4-3.59-2.16-5.56,4.18,.84,8.24,.83,12.43,0Z"/>
  <path class="cls-2" d="M37.56,74.76c.14,1.51,1.41,2.62,2.92,2.62,1.51,0,2.77-1.13,2.92-2.63,.04-.47,.06-.94,.03-1.41-.03-.49,.14-.69,.63-.79,1.39-.26,2.62-.88,3.69-1.81,2.21-1.93,2.95-4.42,2.8-7.28-.21-4.17-3.44-7.55-7.61-7.85-1.09-.08-2.18-.04-3.27-.07-1.57-.04-2.52-.99-2.59-2.57-.01-.37-.01-.75,.01-1.12,.08-1.25,.85-2.09,2.09-2.2,.79-.07,1.59-.05,2.38-.05,1.5,0,1.86,.32,2.09,1.8,.24,1.54,1.57,2.6,3.11,2.49,1.56-.12,2.76-1.32,2.74-2.88-.03-2.98-1.44-5.14-4.04-6.52-.62-.33-1.56-.36-1.9-.85-.34-.5-.1-1.39-.17-2.1-.14-1.51-1.39-2.62-2.91-2.62-1.53,0-2.77,1.1-2.92,2.61-.05,.54-.07,1.09-.04,1.63,.03,.53-.14,.77-.67,.93-1.82,.55-3.24,1.67-4.32,3.23-1.29,1.86-1.46,3.95-1.37,6.12,.19,4.31,3.67,7.84,7.98,8,1.04,.04,2.08-.02,3.12,.04,1.62,.1,2.41,1.1,2.37,2.89-.04,1.55-.9,2.41-2.48,2.43-1.29,.02-2.58,0-3.87,0-1.49,0-1.79-.27-2.02-1.76-.22-1.5-1.55-2.6-3.02-2.52-1.56,.08-2.81,1.27-2.82,2.81-.03,2.78,1.12,4.98,3.54,6.34,1.05,.59,2.28,.86,3.6,1.34,0,.44-.05,1.09,0,1.72Z"/>
  <path class="cls-2" d="M96.46,66.86c-3.28-2.88-6.57-5.74-9.87-8.59-1.28-1.1-3.02-.97-4.06,.24-1.04,1.21-.92,2.91,.35,4.06,1.12,1.01,2.28,1.99,3.43,2.98,.21,.18,.47,.3,.7,.46-.07,.08-.14,.16-.21,.24h-4.98c-6.38,0-12.77,0-19.15,0-2.04,0-3.38,1.62-2.94,3.52,.3,1.33,1.48,2.17,3.07,2.17,7.69,0,15.38,0,23.06,0h1.22c-1.56,1.35-2.91,2.5-4.24,3.69-1.27,1.14-1.4,2.85-.35,4.05,1.05,1.21,2.78,1.35,4.06,.25,3.33-2.86,6.65-5.74,9.94-8.65,1.45-1.28,1.44-3.14-.03-4.42Z"/>
</svg>